<?xml version="1.0" standalone="no"?>
<!DOCTYPE svg PUBLIC "-//W3C//DTD SVG 20010904//EN"
 "http://www.w3.org/TR/2001/REC-SVG-20010904/DTD/svg10.dtd">
<svg version="1.0" xmlns="http://www.w3.org/2000/svg"
 width="1654.000000pt" height="100.000000pt" viewBox="0 0 1654.000000 100.000000"
 preserveAspectRatio="xMidYMid meet">

<g transform="translate(0.000000,100.000000) scale(0.100000,-0.100000)"
fill="#000000" stroke="none">
<path d="M4933 980 c-85 -22 -109 -34 -189 -93 -71 -52 -135 -141 -160 -225
-24 -78 -25 -236 -1 -317 22 -73 92 -180 147 -224 93 -75 204 -111 340 -111
142 0 250 42 363 142 l37 33 -57 63 -58 62 -50 -41 c-27 -23 -74 -53 -103 -67
-48 -22 -64 -24 -150 -20 -75 3 -107 9 -140 27 -115 60 -174 158 -174 295 -1
70 3 90 27 139 33 67 97 130 163 160 37 17 66 21 137 21 79 0 97 -4 148 -29
31 -16 75 -44 97 -62 l40 -34 27 19 c16 11 44 37 63 57 l35 37 -51 46 c-66 61
-135 98 -230 122 -95 25 -167 25 -261 0z"/>
<path d="M7440 912 l0 -90 193 -4 c189 -3 193 -3 247 -32 73 -37 92 -56 126
-124 26 -52 29 -66 29 -162 0 -111 -8 -143 -54 -213 -40 -63 -91 -86 -219 -99
-61 -6 -117 -8 -126 -5 -14 6 -16 34 -16 212 l0 205 -90 0 -90 0 0 -296 0
-296 228 4 c257 5 294 13 377 76 153 115 220 363 156 572 -52 171 -142 267
-292 311 -61 18 -109 22 -271 26 l-198 5 0 -90z"/>
<path d="M10380 910 l0 -90 270 0 270 0 0 90 0 90 -270 0 -270 0 0 -90z"/>
<path d="M13305 993 c-211 -49 -349 -169 -400 -346 -23 -80 -21 -213 4 -300
47 -161 170 -278 338 -321 78 -20 208 -20 287 0 72 18 177 78 226 128 l34 36
-59 60 -58 59 -44 -39 c-80 -70 -123 -85 -243 -85 -92 0 -111 3 -153 25 -63
32 -111 79 -145 143 -24 46 -27 63 -27 147 0 111 19 162 88 233 66 68 125 91
232 91 103 0 166 -22 243 -87 24 -21 47 -37 51 -37 11 0 111 105 111 117 0 13
-67 69 -130 108 -85 54 -267 88 -355 68z"/>
<path d="M15070 912 l0 -90 193 -4 c190 -3 193 -3 250 -33 71 -36 113 -86 138
-166 50 -161 -4 -344 -121 -404 -35 -18 -237 -42 -265 -32 -13 6 -15 36 -15
212 l0 205 -90 0 -90 0 0 -295 0 -295 198 0 c285 0 370 24 466 130 163 181
157 544 -12 723 -94 100 -188 128 -454 134 l-198 5 0 -90z"/>
<path d="M0 900 l0 -90 245 0 245 0 0 90 0 90 -245 0 -245 0 0 -90z"/>
<path d="M640 906 l0 -84 169 -3 c154 -4 172 -6 198 -25 59 -44 55 -135 -7
-166 -29 -15 -63 -18 -197 -18 l-163 0 0 -300 0 -300 90 0 90 0 2 207 c2 143
6 208 14 210 7 2 48 -65 92 -149 44 -84 94 -178 110 -208 l30 -55 101 -3 102
-3 -42 78 c-23 43 -61 114 -84 158 -94 175 -106 200 -97 203 5 1 30 16 55 32
123 78 160 233 89 372 -57 111 -131 138 -384 138 l-168 0 0 -84z"/>
<path d="M1769 971 c-140 -45 -237 -128 -302 -259 l-42 -85 0 -126 c0 -124 1
-127 37 -204 87 -184 248 -287 448 -287 163 0 292 64 390 194 199 265 70 668
-247 766 -83 26 -206 26 -284 1z m258 -171 c57 -25 134 -99 161 -154 13 -24
25 -73 29 -108 12 -133 -37 -241 -142 -313 l-57 -40 -107 0 c-97 0 -110 2
-151 27 -62 37 -115 94 -140 150 -71 161 -2 355 153 433 66 33 188 35 254 5z"/>
<path d="M2692 918 c-12 -73 -38 -227 -107 -623 -20 -116 -39 -227 -42 -248
l-6 -38 89 3 89 3 27 160 c15 88 37 218 49 289 12 72 24 139 29 150 5 15 35
-63 110 -292 l104 -312 82 0 82 0 45 133 c24 72 71 210 103 305 32 94 61 172
65 172 3 0 14 -52 24 -115 l17 -115 89 0 89 0 -5 28 c-11 56 -95 562 -95 567
0 3 -40 5 -89 5 l-89 0 -46 -137 c-26 -76 -77 -226 -113 -333 -36 -107 -69
-199 -73 -204 -5 -4 -59 145 -121 333 l-113 341 -91 0 -90 0 -13 -72z"/>
<path d="M5630 906 l0 -84 169 -3 c165 -4 170 -5 196 -29 38 -35 47 -65 35
-112 -17 -60 -46 -68 -240 -68 l-160 0 0 -300 0 -300 90 0 90 0 0 211 c0 164
3 210 13 207 6 -2 62 -97 122 -211 l110 -207 98 0 c53 0 97 3 97 6 0 4 -20 43
-44 88 -24 45 -69 131 -101 191 -32 61 -62 114 -66 120 -17 18 -8 33 34 55 60
31 92 65 117 123 29 67 25 191 -8 252 -65 121 -129 145 -384 145 l-168 0 0
-84z"/>
<path d="M6751 967 c-5 -14 -24 -64 -41 -113 -18 -49 -47 -129 -65 -179 -18
-49 -66 -184 -108 -300 -41 -116 -84 -235 -95 -265 -41 -111 -47 -101 59 -98
l94 3 68 190 c65 183 131 363 164 453 9 23 18 42 22 42 3 0 33 -75 66 -166
l60 -166 93 -2 c50 0 92 -1 92 -1 0 0 -18 52 -40 115 -22 63 -52 147 -65 185
-14 39 -45 126 -69 195 l-43 125 -92 3 c-88 3 -91 2 -100 -21z"/>
<path d="M8380 695 l0 -295 90 0 90 0 0 295 0 295 -90 0 -90 0 0 -295z"/>
<path d="M8990 905 l0 -85 270 0 270 0 0 85 0 85 -270 0 -270 0 0 -85z"/>
<path d="M11409 971 c-124 -40 -245 -139 -296 -242 -71 -143 -69 -318 4 -463
33 -65 123 -159 188 -196 108 -62 273 -78 398 -40 128 40 258 165 303 293 75
213 -3 460 -184 584 -117 80 -283 106 -413 64z m258 -170 c64 -30 132 -98 164
-166 24 -48 29 -74 29 -131 0 -39 -5 -86 -12 -105 -23 -68 -76 -138 -134 -176
-57 -38 -57 -38 -163 -38 -103 0 -108 1 -156 32 -117 75 -160 152 -160 283 1
73 5 93 30 143 33 66 97 130 158 158 58 26 186 26 244 0z"/>
<path d="M14290 966 c-136 -47 -226 -126 -286 -251 -105 -219 -30 -498 169
-629 151 -99 384 -102 529 -6 61 41 150 137 176 192 113 235 32 520 -187 652
-113 69 -275 86 -401 42z m275 -166 c134 -65 206 -202 185 -352 -16 -108 -87
-205 -183 -249 -63 -28 -186 -26 -253 5 -118 55 -175 140 -182 273 -4 70 -1
93 19 145 27 73 95 148 162 178 60 28 195 28 252 0z"/>
<path d="M16010 905 l0 -85 265 0 265 0 0 85 0 85 -265 0 -265 0 0 -85z"/>
<path d="M0 320 l0 -310 90 0 90 0 0 220 0 220 155 0 155 0 0 90 0 90 -245 0
-245 0 0 -310z"/>
<path d="M8990 320 l0 -310 270 0 270 0 0 88 0 87 -177 0 -178 0 -3 133 -3
132 181 0 180 0 0 90 0 90 -270 0 -270 0 0 -310z"/>
<path d="M16010 320 l0 -310 265 0 265 0 0 85 0 85 -172 2 -173 3 -3 133 -3
132 176 0 175 0 0 90 0 90 -265 0 -265 0 0 -310z"/>
<path d="M10560 305 l0 -295 90 0 90 0 0 295 0 295 -90 0 -90 0 0 -295z"/>
<path d="M3495 143 c3 -21 11 -59 17 -85 l10 -48 84 0 c47 0 84 4 84 10 0 5
-5 43 -11 85 l-11 75 -90 0 -90 0 7 -37z"/>
<path d="M7040 177 c0 -2 13 -39 29 -83 l29 -79 96 -3 96 -3 -21 53 c-12 29
-26 68 -32 86 l-10 32 -94 0 c-51 0 -93 -1 -93 -3z"/>
<path d="M8380 95 l0 -85 230 0 230 0 0 85 0 85 -230 0 -230 0 0 -85z"/>
</g>
</svg>
